<mxfile host="Electron" agent="Mozilla/5.0 (Windows NT 10.0; Win64; x64) AppleWebKit/537.36 (KHTML, like Gecko) draw.io/28.1.2 Chrome/138.0.7204.243 Electron/37.4.0 Safari/537.36" version="28.1.2">
  <diagram name="Page-1" id="xnyz522swE5CdhJoXdKe">
    <mxGraphModel dx="1430" dy="1040" grid="1" gridSize="10" guides="1" tooltips="1" connect="1" arrows="1" fold="1" page="1" pageScale="1" pageWidth="850" pageHeight="1100" math="0" shadow="0">
      <root>
        <mxCell id="0" />
        <mxCell id="1" parent="0" />
        <mxCell id="EKk3G3_mN2QNT9s7CSLi-9" value="&lt;i&gt;Animal&lt;/i&gt;" style="swimlane;fontStyle=1;align=center;verticalAlign=top;childLayout=stackLayout;horizontal=1;startSize=26;horizontalStack=0;resizeParent=1;resizeParentMax=0;resizeLast=0;collapsible=1;marginBottom=0;whiteSpace=wrap;html=1;" vertex="1" parent="1">
          <mxGeometry x="170" y="130" width="160" height="60" as="geometry" />
        </mxCell>
        <mxCell id="EKk3G3_mN2QNT9s7CSLi-11" value="" style="line;strokeWidth=1;fillColor=none;align=left;verticalAlign=middle;spacingTop=-1;spacingLeft=3;spacingRight=3;rotatable=0;labelPosition=right;points=[];portConstraint=eastwest;strokeColor=inherit;" vertex="1" parent="EKk3G3_mN2QNT9s7CSLi-9">
          <mxGeometry y="26" width="160" height="8" as="geometry" />
        </mxCell>
        <mxCell id="EKk3G3_mN2QNT9s7CSLi-12" value="~ Move(): void" style="text;strokeColor=none;fillColor=none;align=left;verticalAlign=top;spacingLeft=4;spacingRight=4;overflow=hidden;rotatable=0;points=[[0,0.5],[1,0.5]];portConstraint=eastwest;whiteSpace=wrap;html=1;" vertex="1" parent="EKk3G3_mN2QNT9s7CSLi-9">
          <mxGeometry y="34" width="160" height="26" as="geometry" />
        </mxCell>
        <mxCell id="EKk3G3_mN2QNT9s7CSLi-16" value="Bird" style="swimlane;fontStyle=1;align=center;verticalAlign=top;childLayout=stackLayout;horizontal=1;startSize=26;horizontalStack=0;resizeParent=1;resizeParentMax=0;resizeLast=0;collapsible=1;marginBottom=0;whiteSpace=wrap;html=1;" vertex="1" parent="1">
          <mxGeometry x="170" y="310" width="160" height="164" as="geometry" />
        </mxCell>
        <mxCell id="EKk3G3_mN2QNT9s7CSLi-18" value="" style="line;strokeWidth=1;fillColor=none;align=left;verticalAlign=middle;spacingTop=-1;spacingLeft=3;spacingRight=3;rotatable=0;labelPosition=right;points=[];portConstraint=eastwest;strokeColor=inherit;" vertex="1" parent="EKk3G3_mN2QNT9s7CSLi-16">
          <mxGeometry y="26" width="160" height="8" as="geometry" />
        </mxCell>
        <mxCell id="EKk3G3_mN2QNT9s7CSLi-19" value="~ move(): void&lt;span style=&quot;white-space: pre;&quot;&gt;&#x9;&lt;/span&gt;" style="text;strokeColor=none;fillColor=none;align=left;verticalAlign=top;spacingLeft=4;spacingRight=4;overflow=hidden;rotatable=0;points=[[0,0.5],[1,0.5]];portConstraint=eastwest;whiteSpace=wrap;html=1;" vertex="1" parent="EKk3G3_mN2QNT9s7CSLi-16">
          <mxGeometry y="34" width="160" height="26" as="geometry" />
        </mxCell>
        <mxCell id="EKk3G3_mN2QNT9s7CSLi-21" value="+ takeoff(): void" style="text;strokeColor=none;fillColor=none;align=left;verticalAlign=top;spacingLeft=4;spacingRight=4;overflow=hidden;rotatable=0;points=[[0,0.5],[1,0.5]];portConstraint=eastwest;whiteSpace=wrap;html=1;" vertex="1" parent="EKk3G3_mN2QNT9s7CSLi-16">
          <mxGeometry y="60" width="160" height="26" as="geometry" />
        </mxCell>
        <mxCell id="EKk3G3_mN2QNT9s7CSLi-20" value="+ land(): void" style="text;strokeColor=none;fillColor=none;align=left;verticalAlign=top;spacingLeft=4;spacingRight=4;overflow=hidden;rotatable=0;points=[[0,0.5],[1,0.5]];portConstraint=eastwest;whiteSpace=wrap;html=1;" vertex="1" parent="EKk3G3_mN2QNT9s7CSLi-16">
          <mxGeometry y="86" width="160" height="26" as="geometry" />
        </mxCell>
        <mxCell id="EKk3G3_mN2QNT9s7CSLi-22" value="+ fly(): void" style="text;strokeColor=none;fillColor=none;align=left;verticalAlign=top;spacingLeft=4;spacingRight=4;overflow=hidden;rotatable=0;points=[[0,0.5],[1,0.5]];portConstraint=eastwest;whiteSpace=wrap;html=1;" vertex="1" parent="EKk3G3_mN2QNT9s7CSLi-16">
          <mxGeometry y="112" width="160" height="26" as="geometry" />
        </mxCell>
        <mxCell id="EKk3G3_mN2QNT9s7CSLi-23" value="+ track(): void" style="text;strokeColor=none;fillColor=none;align=left;verticalAlign=top;spacingLeft=4;spacingRight=4;overflow=hidden;rotatable=0;points=[[0,0.5],[1,0.5]];portConstraint=eastwest;whiteSpace=wrap;html=1;" vertex="1" parent="EKk3G3_mN2QNT9s7CSLi-16">
          <mxGeometry y="138" width="160" height="26" as="geometry" />
        </mxCell>
        <mxCell id="EKk3G3_mN2QNT9s7CSLi-24" value="Extends" style="endArrow=block;endSize=16;endFill=0;html=1;rounded=0;entryX=0.519;entryY=1.173;entryDx=0;entryDy=0;entryPerimeter=0;exitX=0.5;exitY=0;exitDx=0;exitDy=0;" edge="1" parent="1" source="EKk3G3_mN2QNT9s7CSLi-16" target="EKk3G3_mN2QNT9s7CSLi-12">
          <mxGeometry width="160" relative="1" as="geometry">
            <mxPoint x="230" y="280" as="sourcePoint" />
            <mxPoint x="390" y="280" as="targetPoint" />
          </mxGeometry>
        </mxCell>
        <mxCell id="EKk3G3_mN2QNT9s7CSLi-26" value="&amp;lt;&amp;lt;interface&amp;gt;&amp;gt; IFlightEnabled" style="swimlane;fontStyle=1;align=center;verticalAlign=top;childLayout=stackLayout;horizontal=1;startSize=30;horizontalStack=0;resizeParent=1;resizeParentMax=0;resizeLast=0;collapsible=1;marginBottom=0;whiteSpace=wrap;html=1;" vertex="1" parent="1">
          <mxGeometry x="180" y="560" width="210" height="90" as="geometry" />
        </mxCell>
        <mxCell id="EKk3G3_mN2QNT9s7CSLi-29" value="&lt;div&gt;+ fly(): void&lt;/div&gt;&lt;div&gt;+land(): void&lt;/div&gt;+ takeOff(): void&lt;div&gt;&lt;br&gt;&lt;/div&gt;&lt;div&gt;&lt;br&gt;&lt;/div&gt;" style="text;strokeColor=none;fillColor=none;align=left;verticalAlign=top;spacingLeft=4;spacingRight=4;overflow=hidden;rotatable=0;points=[[0,0.5],[1,0.5]];portConstraint=eastwest;whiteSpace=wrap;html=1;" vertex="1" parent="EKk3G3_mN2QNT9s7CSLi-26">
          <mxGeometry y="30" width="210" height="60" as="geometry" />
        </mxCell>
        <mxCell id="EKk3G3_mN2QNT9s7CSLi-30" value="" style="endArrow=block;dashed=1;endFill=0;endSize=12;html=1;rounded=0;exitX=0.493;exitY=1.083;exitDx=0;exitDy=0;exitPerimeter=0;" edge="1" parent="1" source="EKk3G3_mN2QNT9s7CSLi-23">
          <mxGeometry width="160" relative="1" as="geometry">
            <mxPoint x="220" y="510" as="sourcePoint" />
            <mxPoint x="280" y="562" as="targetPoint" />
          </mxGeometry>
        </mxCell>
        <mxCell id="EKk3G3_mN2QNT9s7CSLi-31" value="&amp;lt;&amp;lt;interface&amp;gt;&amp;gt; ITrackable" style="swimlane;fontStyle=1;align=center;verticalAlign=top;childLayout=stackLayout;horizontal=1;startSize=30;horizontalStack=0;resizeParent=1;resizeParentMax=0;resizeLast=0;collapsible=1;marginBottom=0;whiteSpace=wrap;html=1;" vertex="1" parent="1">
          <mxGeometry x="-70" y="560" width="210" height="60" as="geometry" />
        </mxCell>
        <mxCell id="EKk3G3_mN2QNT9s7CSLi-32" value="&lt;div&gt;+ track(): void&lt;/div&gt;&lt;div&gt;&lt;br&gt;&lt;/div&gt;&lt;div&gt;&lt;br&gt;&lt;/div&gt;&lt;div&gt;&lt;br&gt;&lt;/div&gt;" style="text;strokeColor=none;fillColor=none;align=left;verticalAlign=top;spacingLeft=4;spacingRight=4;overflow=hidden;rotatable=0;points=[[0,0.5],[1,0.5]];portConstraint=eastwest;whiteSpace=wrap;html=1;" vertex="1" parent="EKk3G3_mN2QNT9s7CSLi-31">
          <mxGeometry y="30" width="210" height="30" as="geometry" />
        </mxCell>
        <mxCell id="EKk3G3_mN2QNT9s7CSLi-33" value="" style="endArrow=block;dashed=1;endFill=0;endSize=12;html=1;rounded=0;exitX=0.144;exitY=1.051;exitDx=0;exitDy=0;exitPerimeter=0;entryX=0.5;entryY=0;entryDx=0;entryDy=0;" edge="1" parent="1" source="EKk3G3_mN2QNT9s7CSLi-23" target="EKk3G3_mN2QNT9s7CSLi-31">
          <mxGeometry width="160" relative="1" as="geometry">
            <mxPoint x="280" y="550" as="sourcePoint" />
            <mxPoint x="311" y="636" as="targetPoint" />
          </mxGeometry>
        </mxCell>
        <mxCell id="EKk3G3_mN2QNT9s7CSLi-35" value="Jet&lt;div&gt;&lt;br&gt;&lt;/div&gt;" style="swimlane;fontStyle=1;align=center;verticalAlign=top;childLayout=stackLayout;horizontal=1;startSize=20;horizontalStack=0;resizeParent=1;resizeParentMax=0;resizeLast=0;collapsible=1;marginBottom=0;whiteSpace=wrap;html=1;" vertex="1" parent="1">
          <mxGeometry x="-10" y="720" width="160" height="132" as="geometry" />
        </mxCell>
        <mxCell id="EKk3G3_mN2QNT9s7CSLi-36" value="" style="line;strokeWidth=1;fillColor=none;align=left;verticalAlign=middle;spacingTop=-1;spacingLeft=3;spacingRight=3;rotatable=0;labelPosition=right;points=[];portConstraint=eastwest;strokeColor=inherit;" vertex="1" parent="EKk3G3_mN2QNT9s7CSLi-35">
          <mxGeometry y="20" width="160" height="8" as="geometry" />
        </mxCell>
        <mxCell id="EKk3G3_mN2QNT9s7CSLi-38" value="+ takeoff(): void" style="text;strokeColor=none;fillColor=none;align=left;verticalAlign=top;spacingLeft=4;spacingRight=4;overflow=hidden;rotatable=0;points=[[0,0.5],[1,0.5]];portConstraint=eastwest;whiteSpace=wrap;html=1;" vertex="1" parent="EKk3G3_mN2QNT9s7CSLi-35">
          <mxGeometry y="28" width="160" height="26" as="geometry" />
        </mxCell>
        <mxCell id="EKk3G3_mN2QNT9s7CSLi-39" value="+ land(): void" style="text;strokeColor=none;fillColor=none;align=left;verticalAlign=top;spacingLeft=4;spacingRight=4;overflow=hidden;rotatable=0;points=[[0,0.5],[1,0.5]];portConstraint=eastwest;whiteSpace=wrap;html=1;" vertex="1" parent="EKk3G3_mN2QNT9s7CSLi-35">
          <mxGeometry y="54" width="160" height="26" as="geometry" />
        </mxCell>
        <mxCell id="EKk3G3_mN2QNT9s7CSLi-40" value="+ fly(): void" style="text;strokeColor=none;fillColor=none;align=left;verticalAlign=top;spacingLeft=4;spacingRight=4;overflow=hidden;rotatable=0;points=[[0,0.5],[1,0.5]];portConstraint=eastwest;whiteSpace=wrap;html=1;" vertex="1" parent="EKk3G3_mN2QNT9s7CSLi-35">
          <mxGeometry y="80" width="160" height="26" as="geometry" />
        </mxCell>
        <mxCell id="EKk3G3_mN2QNT9s7CSLi-41" value="+ track(): void" style="text;strokeColor=none;fillColor=none;align=left;verticalAlign=top;spacingLeft=4;spacingRight=4;overflow=hidden;rotatable=0;points=[[0,0.5],[1,0.5]];portConstraint=eastwest;whiteSpace=wrap;html=1;" vertex="1" parent="EKk3G3_mN2QNT9s7CSLi-35">
          <mxGeometry y="106" width="160" height="26" as="geometry" />
        </mxCell>
        <mxCell id="EKk3G3_mN2QNT9s7CSLi-42" value="" style="endArrow=block;dashed=1;endFill=0;endSize=12;html=1;rounded=0;exitX=0.399;exitY=-0.016;exitDx=0;exitDy=0;exitPerimeter=0;entryX=0.476;entryY=1;entryDx=0;entryDy=0;entryPerimeter=0;" edge="1" parent="1" source="EKk3G3_mN2QNT9s7CSLi-35" target="EKk3G3_mN2QNT9s7CSLi-32">
          <mxGeometry width="160" relative="1" as="geometry">
            <mxPoint x="248" y="680" as="sourcePoint" />
            <mxPoint x="90" y="765" as="targetPoint" />
          </mxGeometry>
        </mxCell>
        <mxCell id="EKk3G3_mN2QNT9s7CSLi-43" value="" style="endArrow=block;dashed=1;endFill=0;endSize=12;html=1;rounded=0;entryX=0.371;entryY=1.019;entryDx=0;entryDy=0;entryPerimeter=0;" edge="1" parent="1" source="EKk3G3_mN2QNT9s7CSLi-35" target="EKk3G3_mN2QNT9s7CSLi-29">
          <mxGeometry width="160" relative="1" as="geometry">
            <mxPoint x="164" y="808" as="sourcePoint" />
            <mxPoint x="130" y="710" as="targetPoint" />
          </mxGeometry>
        </mxCell>
        <mxCell id="EKk3G3_mN2QNT9s7CSLi-51" value="DragonFly" style="swimlane;fontStyle=1;align=center;verticalAlign=top;childLayout=stackLayout;horizontal=1;startSize=26;horizontalStack=0;resizeParent=1;resizeParentMax=0;resizeLast=0;collapsible=1;marginBottom=0;whiteSpace=wrap;html=1;" vertex="1" parent="1">
          <mxGeometry x="240" y="790" width="280" height="220" as="geometry" />
        </mxCell>
        <mxCell id="EKk3G3_mN2QNT9s7CSLi-52" value="~ name: String&lt;div&gt;~ type: String&lt;/div&gt;" style="text;strokeColor=none;fillColor=none;align=left;verticalAlign=top;spacingLeft=4;spacingRight=4;overflow=hidden;rotatable=0;points=[[0,0.5],[1,0.5]];portConstraint=eastwest;whiteSpace=wrap;html=1;" vertex="1" parent="EKk3G3_mN2QNT9s7CSLi-51">
          <mxGeometry y="26" width="280" height="44" as="geometry" />
        </mxCell>
        <mxCell id="EKk3G3_mN2QNT9s7CSLi-53" value="" style="line;strokeWidth=1;fillColor=none;align=left;verticalAlign=middle;spacingTop=-1;spacingLeft=3;spacingRight=3;rotatable=0;labelPosition=right;points=[];portConstraint=eastwest;strokeColor=inherit;" vertex="1" parent="EKk3G3_mN2QNT9s7CSLi-51">
          <mxGeometry y="70" width="280" height="8" as="geometry" />
        </mxCell>
        <mxCell id="EKk3G3_mN2QNT9s7CSLi-54" value="~ DragonFly(String name,&amp;nbsp; String type)&lt;div&gt;&lt;br&gt;&lt;/div&gt;&lt;div&gt;+ takeOff(): void&lt;/div&gt;&lt;div&gt;&lt;br&gt;&lt;/div&gt;&lt;div&gt;+ land(): void&lt;/div&gt;&lt;div&gt;&lt;br&gt;&lt;/div&gt;&lt;div&gt;+fly(): void&lt;/div&gt;" style="text;strokeColor=none;fillColor=none;align=left;verticalAlign=top;spacingLeft=4;spacingRight=4;overflow=hidden;rotatable=0;points=[[0,0.5],[1,0.5]];portConstraint=eastwest;whiteSpace=wrap;html=1;" vertex="1" parent="EKk3G3_mN2QNT9s7CSLi-51">
          <mxGeometry y="78" width="280" height="142" as="geometry" />
        </mxCell>
        <mxCell id="EKk3G3_mN2QNT9s7CSLi-55" value="" style="endArrow=block;dashed=1;endFill=0;endSize=12;html=1;rounded=0;entryX=0.59;entryY=1.04;entryDx=0;entryDy=0;entryPerimeter=0;exitX=0.611;exitY=-0.016;exitDx=0;exitDy=0;exitPerimeter=0;" edge="1" parent="1" source="EKk3G3_mN2QNT9s7CSLi-51" target="EKk3G3_mN2QNT9s7CSLi-29">
          <mxGeometry width="160" relative="1" as="geometry">
            <mxPoint x="270" y="778" as="sourcePoint" />
            <mxPoint x="378" y="700" as="targetPoint" />
          </mxGeometry>
        </mxCell>
        <mxCell id="EKk3G3_mN2QNT9s7CSLi-56" value="&amp;lt;&amp;lt;interface&amp;gt;&amp;gt; IOrbitEarth" style="swimlane;fontStyle=1;align=center;verticalAlign=top;childLayout=stackLayout;horizontal=1;startSize=30;horizontalStack=0;resizeParent=1;resizeParentMax=0;resizeLast=0;collapsible=1;marginBottom=0;whiteSpace=wrap;html=1;" vertex="1" parent="1">
          <mxGeometry x="530" y="540" width="210" height="60" as="geometry" />
        </mxCell>
        <mxCell id="EKk3G3_mN2QNT9s7CSLi-57" value="+achieveOrbit(): void" style="text;strokeColor=none;fillColor=none;align=left;verticalAlign=top;spacingLeft=4;spacingRight=4;overflow=hidden;rotatable=0;points=[[0,0.5],[1,0.5]];portConstraint=eastwest;whiteSpace=wrap;html=1;" vertex="1" parent="EKk3G3_mN2QNT9s7CSLi-56">
          <mxGeometry y="30" width="210" height="30" as="geometry" />
        </mxCell>
        <mxCell id="EKk3G3_mN2QNT9s7CSLi-58" value="Extends" style="endArrow=block;endSize=16;endFill=0;html=1;rounded=0;entryX=1.013;entryY=0.11;entryDx=0;entryDy=0;entryPerimeter=0;exitX=0.009;exitY=0.109;exitDx=0;exitDy=0;exitPerimeter=0;" edge="1" parent="1" source="EKk3G3_mN2QNT9s7CSLi-57" target="EKk3G3_mN2QNT9s7CSLi-29">
          <mxGeometry width="160" relative="1" as="geometry">
            <mxPoint x="440" y="566" as="sourcePoint" />
            <mxPoint x="443" y="450" as="targetPoint" />
          </mxGeometry>
        </mxCell>
        <mxCell id="EKk3G3_mN2QNT9s7CSLi-59" value="Satellite" style="swimlane;fontStyle=1;align=center;verticalAlign=top;childLayout=stackLayout;horizontal=1;startSize=26;horizontalStack=0;resizeParent=1;resizeParentMax=0;resizeLast=0;collapsible=1;marginBottom=0;whiteSpace=wrap;html=1;" vertex="1" parent="1">
          <mxGeometry x="570" y="710" width="210" height="150" as="geometry" />
        </mxCell>
        <mxCell id="EKk3G3_mN2QNT9s7CSLi-61" value="" style="line;strokeWidth=1;fillColor=none;align=left;verticalAlign=middle;spacingTop=-1;spacingLeft=3;spacingRight=3;rotatable=0;labelPosition=right;points=[];portConstraint=eastwest;strokeColor=inherit;" vertex="1" parent="EKk3G3_mN2QNT9s7CSLi-59">
          <mxGeometry y="26" width="210" height="8" as="geometry" />
        </mxCell>
        <mxCell id="EKk3G3_mN2QNT9s7CSLi-62" value="+achieveOrbit(): void&lt;br&gt;&lt;div&gt;&lt;br&gt;&lt;/div&gt;&lt;div&gt;+ takeOff(): void&lt;/div&gt;&lt;div&gt;&lt;br&gt;&lt;/div&gt;&lt;div&gt;+ land(): void&lt;/div&gt;&lt;div&gt;&lt;br&gt;&lt;/div&gt;&lt;div&gt;+fly(): void&lt;/div&gt;" style="text;strokeColor=none;fillColor=none;align=left;verticalAlign=top;spacingLeft=4;spacingRight=4;overflow=hidden;rotatable=0;points=[[0,0.5],[1,0.5]];portConstraint=eastwest;whiteSpace=wrap;html=1;" vertex="1" parent="EKk3G3_mN2QNT9s7CSLi-59">
          <mxGeometry y="34" width="210" height="116" as="geometry" />
        </mxCell>
        <mxCell id="EKk3G3_mN2QNT9s7CSLi-63" value="" style="endArrow=block;dashed=1;endFill=0;endSize=12;html=1;rounded=0;entryX=0.468;entryY=0.911;entryDx=0;entryDy=0;entryPerimeter=0;exitX=0.468;exitY=0.008;exitDx=0;exitDy=0;exitPerimeter=0;" edge="1" parent="1" source="EKk3G3_mN2QNT9s7CSLi-59" target="EKk3G3_mN2QNT9s7CSLi-57">
          <mxGeometry width="160" relative="1" as="geometry">
            <mxPoint x="644" y="754" as="sourcePoint" />
            <mxPoint x="540" y="650" as="targetPoint" />
          </mxGeometry>
        </mxCell>
        <mxCell id="EKk3G3_mN2QNT9s7CSLi-64" value="&amp;lt;&amp;lt;enum&amp;gt;&amp;gt; FlightStage" style="swimlane;fontStyle=1;align=center;verticalAlign=top;childLayout=stackLayout;horizontal=1;startSize=30;horizontalStack=0;resizeParent=1;resizeParentMax=0;resizeLast=0;collapsible=1;marginBottom=0;whiteSpace=wrap;html=1;" vertex="1" parent="1">
          <mxGeometry x="-440" y="300" width="340" height="60" as="geometry" />
        </mxCell>
        <mxCell id="EKk3G3_mN2QNT9s7CSLi-65" value="~ GROUNDED, LAUNCH, CRUISE, DATA_COLLECTION" style="text;strokeColor=none;fillColor=none;align=left;verticalAlign=top;spacingLeft=4;spacingRight=4;overflow=hidden;rotatable=0;points=[[0,0.5],[1,0.5]];portConstraint=eastwest;whiteSpace=wrap;html=1;" vertex="1" parent="EKk3G3_mN2QNT9s7CSLi-64">
          <mxGeometry y="30" width="340" height="30" as="geometry" />
        </mxCell>
        <mxCell id="EKk3G3_mN2QNT9s7CSLi-66" value="&lt;div&gt;Truck&lt;/div&gt;" style="swimlane;fontStyle=1;align=center;verticalAlign=top;childLayout=stackLayout;horizontal=1;startSize=20;horizontalStack=0;resizeParent=1;resizeParentMax=0;resizeLast=0;collapsible=1;marginBottom=0;whiteSpace=wrap;html=1;" vertex="1" parent="1">
          <mxGeometry x="-260" y="780" width="160" height="54" as="geometry" />
        </mxCell>
        <mxCell id="EKk3G3_mN2QNT9s7CSLi-67" value="" style="line;strokeWidth=1;fillColor=none;align=left;verticalAlign=middle;spacingTop=-1;spacingLeft=3;spacingRight=3;rotatable=0;labelPosition=right;points=[];portConstraint=eastwest;strokeColor=inherit;" vertex="1" parent="EKk3G3_mN2QNT9s7CSLi-66">
          <mxGeometry y="20" width="160" height="8" as="geometry" />
        </mxCell>
        <mxCell id="EKk3G3_mN2QNT9s7CSLi-71" value="+ track(): void" style="text;strokeColor=none;fillColor=none;align=left;verticalAlign=top;spacingLeft=4;spacingRight=4;overflow=hidden;rotatable=0;points=[[0,0.5],[1,0.5]];portConstraint=eastwest;whiteSpace=wrap;html=1;" vertex="1" parent="EKk3G3_mN2QNT9s7CSLi-66">
          <mxGeometry y="28" width="160" height="26" as="geometry" />
        </mxCell>
        <mxCell id="EKk3G3_mN2QNT9s7CSLi-72" value="" style="endArrow=block;dashed=1;endFill=0;endSize=12;html=1;rounded=0;entryX=0.208;entryY=0.958;entryDx=0;entryDy=0;entryPerimeter=0;" edge="1" parent="1" source="EKk3G3_mN2QNT9s7CSLi-66" target="EKk3G3_mN2QNT9s7CSLi-32">
          <mxGeometry width="160" relative="1" as="geometry">
            <mxPoint x="-126" y="808" as="sourcePoint" />
            <mxPoint x="-150" y="710" as="targetPoint" />
          </mxGeometry>
        </mxCell>
        <mxCell id="EKk3G3_mN2QNT9s7CSLi-73" value="~FlightStageTracker" style="swimlane;fontStyle=1;align=center;verticalAlign=top;childLayout=stackLayout;horizontal=1;startSize=26;horizontalStack=0;resizeParent=1;resizeParentMax=0;resizeLast=0;collapsible=1;marginBottom=0;whiteSpace=wrap;html=1;" vertex="1" parent="1">
          <mxGeometry x="-480" y="514" width="290" height="112" as="geometry" />
        </mxCell>
        <mxCell id="EKk3G3_mN2QNT9s7CSLi-74" value="~stage : FlightStage" style="text;strokeColor=none;fillColor=none;align=left;verticalAlign=top;spacingLeft=4;spacingRight=4;overflow=hidden;rotatable=0;points=[[0,0.5],[1,0.5]];portConstraint=eastwest;whiteSpace=wrap;html=1;" vertex="1" parent="EKk3G3_mN2QNT9s7CSLi-73">
          <mxGeometry y="26" width="290" height="26" as="geometry" />
        </mxCell>
        <mxCell id="EKk3G3_mN2QNT9s7CSLi-75" value="" style="line;strokeWidth=1;fillColor=none;align=left;verticalAlign=middle;spacingTop=-1;spacingLeft=3;spacingRight=3;rotatable=0;labelPosition=right;points=[];portConstraint=eastwest;strokeColor=inherit;" vertex="1" parent="EKk3G3_mN2QNT9s7CSLi-73">
          <mxGeometry y="52" width="290" height="8" as="geometry" />
        </mxCell>
        <mxCell id="EKk3G3_mN2QNT9s7CSLi-76" value="~ FlightStageTracker(FlightStage stage)" style="text;strokeColor=none;fillColor=none;align=left;verticalAlign=top;spacingLeft=4;spacingRight=4;overflow=hidden;rotatable=0;points=[[0,0.5],[1,0.5]];portConstraint=eastwest;whiteSpace=wrap;html=1;" vertex="1" parent="EKk3G3_mN2QNT9s7CSLi-73">
          <mxGeometry y="60" width="290" height="26" as="geometry" />
        </mxCell>
        <mxCell id="EKk3G3_mN2QNT9s7CSLi-77" value="+ track() : void" style="text;strokeColor=none;fillColor=none;align=left;verticalAlign=top;spacingLeft=4;spacingRight=4;overflow=hidden;rotatable=0;points=[[0,0.5],[1,0.5]];portConstraint=eastwest;whiteSpace=wrap;html=1;" vertex="1" parent="EKk3G3_mN2QNT9s7CSLi-73">
          <mxGeometry y="86" width="290" height="26" as="geometry" />
        </mxCell>
        <mxCell id="EKk3G3_mN2QNT9s7CSLi-78" value="" style="endArrow=block;dashed=1;endFill=0;endSize=12;html=1;rounded=0;entryX=0;entryY=0;entryDx=0;entryDy=0;exitX=1.009;exitY=0.883;exitDx=0;exitDy=0;exitPerimeter=0;" edge="1" parent="1" source="EKk3G3_mN2QNT9s7CSLi-74" target="EKk3G3_mN2QNT9s7CSLi-31">
          <mxGeometry width="160" relative="1" as="geometry">
            <mxPoint x="-180" y="560" as="sourcePoint" />
            <mxPoint x="85" y="640" as="targetPoint" />
          </mxGeometry>
        </mxCell>
        <mxCell id="EKk3G3_mN2QNT9s7CSLi-79" value="" style="endArrow=diamondThin;endFill=0;endSize=24;html=1;rounded=0;exitX=0.501;exitY=1.04;exitDx=0;exitDy=0;exitPerimeter=0;entryX=0.5;entryY=0;entryDx=0;entryDy=0;" edge="1" parent="1" source="EKk3G3_mN2QNT9s7CSLi-65" target="EKk3G3_mN2QNT9s7CSLi-73">
          <mxGeometry width="160" relative="1" as="geometry">
            <mxPoint x="-370" y="470" as="sourcePoint" />
            <mxPoint x="-210" y="470" as="targetPoint" />
          </mxGeometry>
        </mxCell>
      </root>
    </mxGraphModel>
  </diagram>
</mxfile>
